<svg width="287" height="339" xmlns="http://www.w3.org/2000/svg"><g fill="none" fill-rule="evenodd"><path d="M281.368 118.53l-216.98 9.635C29.62 129.71.588 101.983.588 67.235V60.59c0-27.195 22.08-49.238 49.317-49.238h146.412c46.972 0 85.05 38.017 85.05 84.918v22.26z" fill="#0A1318"/><path d="M5.727 38.943c2.777-5.594 6.685-11.626 12.24-17.255C41.873-2.54 77.112.105 84.541.823L60.76 24.179" fill="#0A1318"/><path d="M196.08 118.53v43.363c0 5.58 4.53 10.105 10.12 10.105 5.59 0 10.121 4.524 10.121 10.104v7.719c0 8.96 7.274 16.221 16.246 16.221h40.677l8.123-87.512H196.08z" fill="#151E23"/><path d="M263.496 177.266v161.532H113.517c-49.499 0-90.53-36.265-97.86-83.631a73.886 73.886 0 0 1-.576-4.547c-.032-.28-.063-.56-.078-.84a19.42 19.42 0 0 1-.125-1.34 90.239 90.239 0 0 1-.39-8.501V121.352c0-25.412 20.632-46.012 46.1-46.012h90.14c27.462 0 49.498 23.17 47.565 51.01-1.903 27.404 19.213 50.916 46.723 50.916h18.48z" fill="#F5C191"/><path d="M117.87 161.662a32.96 32.96 0 0 1 14.418-2.178 32.9 32.9 0 0 1 12.963 3.742M58.823 161.687a32.1 32.1 0 0 0-12.183-2.104 32.183 32.183 0 0 0-14.032 3.619" stroke="#2E333B" stroke-width="15" stroke-linecap="round" stroke-linejoin="round"/><path d="M156.527 215.277l-14.23 5.978c-8.412 3.533-12.362 13.207-8.824 21.606 3.539 8.4 13.228 12.345 21.64 8.812l14.23-5.978c8.414-3.535 12.364-13.209 8.824-21.608-3.538-8.399-13.226-12.343-21.64-8.81M39.94 242.368c-2.652 6.306-8.78 10.09-15.237 10.09a16.37 16.37 0 0 1-6.41-1.293l-3.29-1.386a19.42 19.42 0 0 1-.125-1.339 90.239 90.239 0 0 1-.39-8.501v-25.957c.795.187 1.59.452 2.386.794l14.238 5.98c8.406 3.534 12.367 13.204 8.827 21.612" fill="#F1AF85"/><path d="M219.52 270.374c-6.961 16.424-17.477 31.216-31.227 42.597-24.619 20.377-50.549 25.827-79.091 25.827l10.575-.008h143.719l.003-133.64-25.215 20.962-18.764 44.262z" fill="#EEA676"/><path d="M63.046 190.457c1.872 11.131-7.662 20.63-18.798 18.762-6.712-1.127-12.11-6.552-13.192-13.261-1.78-11.054 7.617-20.46 18.695-18.685 6.728 1.077 12.168 6.474 13.295 13.184M146.084 193.536c1.871 11.131-7.664 20.633-18.8 18.763-6.712-1.128-12.11-6.553-13.19-13.262-1.78-11.054 7.616-20.459 18.693-18.685 6.73 1.078 12.168 6.474 13.297 13.184" fill="#151E23"/><path d="M96.508 231.155H73.551c-4.696 0-8.503 3.8-8.503 8.49 0 4.689 3.807 8.49 8.503 8.49h22.957c4.696 0 8.504-3.801 8.504-8.49 0-4.69-3.808-8.49-8.504-8.49" fill="#ED9D69"/><path d="M118.672 265.96c-20.233-.099-40.466-.195-60.7-.294.85 1.237 11.544 16.22 30.763 16.06 18.612-.157 28.964-14.38 29.937-15.767" fill="#C87762"/><path d="M286.992 203.154c0 16.47-13.372 29.82-29.862 29.82-16.497 0-29.866-13.35-29.866-29.82v-9.288c0-16.468 13.37-29.818 29.866-29.818 16.49 0 29.862 13.35 29.862 29.818v9.288z" fill="#F5C191"/><path d="M272.047 198.51c0 7.86-6.382 14.232-14.254 14.232-7.873 0-14.254-6.371-14.254-14.231 0-7.86 6.381-14.232 14.254-14.232 7.872 0 14.254 6.372 14.254 14.232" fill="#EEA676"/></g></svg>