<?xml version="1.0" standalone="no"?>
<!DOCTYPE svg PUBLIC "-//W3C//DTD SVG 20010904//EN"
 "http://www.w3.org/TR/2001/REC-SVG-20010904/DTD/svg10.dtd">
<svg version="1.0" xmlns="http://www.w3.org/2000/svg"
 width="773.000000pt" height="773.000000pt" viewBox="0 0 773.000000 773.000000"
 preserveAspectRatio="xMidYMid meet">
<metadata>
Created by potrace 1.11, written by Peter Selinger 2001-2013
</metadata>
<g transform="translate(0.000000,773.000000) scale(0.100000,-0.100000)"
fill="#000000" stroke="none">
<path d="M3638 7725 c-1 -1 -43 -6 -93 -9 -49 -4 -103 -8 -120 -10 -54 -6
-187 -26 -220 -32 -11 -3 -36 -7 -55 -10 -60 -10 -282 -63 -350 -84 -36 -11
-66 -20 -67 -20 -25 -5 -226 -75 -313 -110 -110 -44 -360 -164 -470 -226 -152
-86 -481 -314 -551 -383 -9 -9 -46 -41 -82 -71 -76 -63 -284 -272 -374 -375
-263 -301 -513 -709 -663 -1085 -81 -201 -182 -540 -204 -680 -3 -19 -12 -71
-20 -115 -9 -44 -18 -102 -21 -130 -4 -27 -8 -60 -10 -73 -26 -163 -26 -745 0
-882 2 -12 7 -48 10 -81 4 -33 8 -68 10 -77 1 -9 10 -57 20 -107 44 -240 130
-536 210 -730 210 -507 475 -910 845 -1286 417 -424 958 -760 1525 -948 113
-37 251 -78 296 -86 12 -2 28 -6 37 -9 9 -3 29 -7 45 -10 15 -3 35 -7 45 -10
9 -3 33 -7 52 -10 19 -3 71 -12 115 -20 44 -8 107 -18 140 -22 33 -3 68 -8 78
-10 126 -23 663 -22 817 1 14 2 50 6 81 10 31 3 67 8 80 10 13 3 44 8 68 11
36 5 135 25 291 60 96 21 335 97 475 151 112 43 103 39 265 116 119 57 163 81
295 157 120 69 223 138 370 248 614 462 1099 1139 1333 1862 55 168 73 227 78
256 3 16 10 47 16 69 5 22 12 51 14 65 3 14 7 32 9 40 8 27 44 244 50 300 3
30 8 64 10 75 17 89 24 509 11 690 -26 373 -116 773 -253 1125 -99 253 -225
493 -389 740 -319 481 -717 860 -1232 1174 -127 77 -507 266 -537 266 -4 0
-21 7 -38 15 -98 46 -489 161 -642 189 -108 20 -145 26 -180 31 -22 4 -47 8
-55 10 -8 2 -51 7 -95 11 -44 3 -89 8 -100 11 -22 5 -551 13 -557 8z"/>
</g>
</svg>
