<svg xmlns="http://www.w3.org/2000/svg" viewBox="0 0 298 298"><path d="M290 119.124h-11.278c-4.797-11.502-14.41-20.223-29.945-22.705C236.976 94.532 206 94.124 206 94.124H92s-30.976.408-42.776 2.295c-15.535 2.482-25.148 11.203-29.945 22.705H8a8 8 0 0 0 0 16h7.581c-1.01 14.564 3.189 30.227 10.241 41.856 17.558 28.961 55.225 41.261 93.416 1.989 12.123-12.463 18.024-22.889 20.906-33.377 0 0 .498-2.466.762-3.29 1.094-3.42 4.271-6.179 8.011-6.179h.166c3.649 0 6.763 2.675 7.928 5.972.316.898.808 3.292.822 3.347 2.874 10.514 8.776 21.131 20.929 33.625 38.191 39.27 75.858 26.833 93.416-2.126 7.081-11.679 10.769-27.871 10.073-41.817H290a8 8 0 0 0 0-16zm-132.88 2.42c-2.518-.881-5.222-1.42-8.037-1.42h-.166c-2.815 0-5.519.539-8.037 1.42-1.042-4.254-2.775-7.42-5.15-11.42h26.541c-2.376 4-4.109 7.166-5.151 11.42z"/></svg>